<svg xmlns="http://www.w3.org/2000/svg" viewBox="0 0 128 128" width="128" height="128">
  <defs>
    <radialGradient id="ap1" cx="40%" cy="35%" r="70%">
      <stop offset="0%" stop-color="#ff9ca5"/>
      <stop offset="55%" stop-color="#e8253c"/>
      <stop offset="100%" stop-color="#821225"/>
    </radialGradient>
    <filter id="apsh" x="-20%" y="-20%" width="140%" height="140%">
      <feDropShadow dx="0" dy="3" stdDeviation="3" flood-color="#000" flood-opacity="0.35"/>
    </filter>
  </defs>
  <g filter="url(#apsh)">
    <!-- leaf -->
    <path d="M64 28 Q80 14 96 24 Q88 38 74 38 Q66 34 64 28 Z" fill="#6fbd3f" stroke="#3e7a22" stroke-width="2"/>
    <!-- stem -->
    <path d="M62 38 Q62 30 60 24" stroke="#5a3416" stroke-width="4" fill="none" stroke-linecap="round"/>
    <!-- apple body with subtle "waist" -->
    <path d="M32 62 Q20 78 24 96 Q30 116 64 116 Q98 116 104 96 Q108 78 96 62 Q86 48 72 48 Q66 50 64 54 Q62 50 56 48 Q42 48 32 62 Z" fill="url(#ap1)"/>
    <!-- highlight -->
    <ellipse cx="46" cy="68" rx="10" ry="16" fill="#fff" fill-opacity="0.35"/>
  </g>
</svg>
