<svg xmlns="http://www.w3.org/2000/svg" viewBox="0 0 128 128" width="128" height="128">
  <defs>
    <radialGradient id="gp1" cx="35%" cy="30%" r="70%">
      <stop offset="0%" stop-color="#c099e3"/>
      <stop offset="60%" stop-color="#6a2ba0"/>
      <stop offset="100%" stop-color="#3c1362"/>
    </radialGradient>
    <filter id="gpsh" x="-20%" y="-20%" width="140%" height="140%">
      <feDropShadow dx="0" dy="3" stdDeviation="3" flood-color="#000" flood-opacity="0.35"/>
    </filter>
  </defs>
  <g filter="url(#gpsh)">
    <!-- leaf -->
    <path d="M66 30 Q82 14 102 24 Q98 38 86 42 Q72 42 66 30 Z" fill="#6fbd3f" stroke="#3e7a22" stroke-width="2"/>
    <path d="M70 30 Q86 24 98 28" stroke="#3e7a22" stroke-width="1.5" fill="none" stroke-linecap="round"/>
    <!-- stem -->
    <path d="M60 32 Q62 42 64 50" stroke="#5a3416" stroke-width="3" fill="none" stroke-linecap="round"/>
    <!-- bunch: bottom row -->
    <g>
      <circle cx="44" cy="100" r="13" fill="url(#gp1)"/>
      <circle cx="64" cy="104" r="14" fill="url(#gp1)"/>
      <circle cx="84" cy="100" r="13" fill="url(#gp1)"/>
      <circle cx="34" cy="82" r="13" fill="url(#gp1)"/>
      <circle cx="54" cy="86" r="13" fill="url(#gp1)"/>
      <circle cx="74" cy="86" r="13" fill="url(#gp1)"/>
      <circle cx="94" cy="82" r="13" fill="url(#gp1)"/>
      <circle cx="44" cy="68" r="12" fill="url(#gp1)"/>
      <circle cx="64" cy="68" r="12" fill="url(#gp1)"/>
      <circle cx="84" cy="68" r="12" fill="url(#gp1)"/>
      <circle cx="54" cy="54" r="11" fill="url(#gp1)"/>
      <circle cx="74" cy="54" r="11" fill="url(#gp1)"/>
    </g>
    <!-- highlights -->
    <ellipse cx="40" cy="62" rx="3.5" ry="2" fill="#fff" fill-opacity="0.55"/>
    <ellipse cx="60" cy="62" rx="3.5" ry="2" fill="#fff" fill-opacity="0.55"/>
    <ellipse cx="50" cy="80" rx="3.5" ry="2" fill="#fff" fill-opacity="0.45"/>
    <ellipse cx="70" cy="80" rx="3.5" ry="2" fill="#fff" fill-opacity="0.45"/>
    <ellipse cx="60" cy="98" rx="4" ry="2" fill="#fff" fill-opacity="0.4"/>
  </g>
</svg>
